<svg xmlns="http://www.w3.org/2000/svg" viewBox="0 0 1600 900" preserveAspectRatio="xMidYMid slice">
  <defs>
    <radialGradient id="centerGlow" cx="50%" cy="42%" r="58%">
      <stop offset="0" stop-color="#2267a7"/>
      <stop offset="0.28" stop-color="#102c5a"/>
      <stop offset="0.7" stop-color="#0a1429"/>
      <stop offset="1" stop-color="#030712"/>
    </radialGradient>
    <linearGradient id="beamCyan" x1="0" x2="1" y1="0" y2="1">
      <stop offset="0" stop-color="#44d9ff" stop-opacity="0"/>
      <stop offset="0.46" stop-color="#44d9ff" stop-opacity="0.28"/>
      <stop offset="1" stop-color="#44d9ff" stop-opacity="0"/>
    </linearGradient>
    <linearGradient id="beamGold" x1="1" x2="0" y1="0" y2="1">
      <stop offset="0" stop-color="#ffcf4a" stop-opacity="0"/>
      <stop offset="0.48" stop-color="#ffcf4a" stop-opacity="0.2"/>
      <stop offset="1" stop-color="#ffcf4a" stop-opacity="0"/>
    </linearGradient>
    <pattern id="stars" width="120" height="120" patternUnits="userSpaceOnUse">
      <circle cx="16" cy="25" r="1.4" fill="#ffffff" opacity="0.84"/>
      <circle cx="74" cy="11" r="1" fill="#44d9ff" opacity="0.72"/>
      <circle cx="105" cy="62" r="1.6" fill="#ffffff" opacity="0.64"/>
      <circle cx="41" cy="89" r="1.1" fill="#ffcf4a" opacity="0.72"/>
      <circle cx="96" cy="108" r="1" fill="#ffffff" opacity="0.58"/>
    </pattern>
  </defs>

  <rect width="1600" height="900" fill="url(#centerGlow)"/>
  <rect width="1600" height="900" fill="url(#stars)" opacity="0.9"/>

  <path d="M795 470L-70 0h265l650 470z" fill="url(#beamCyan)" opacity="0.7"/>
  <path d="M805 470L1670 0h-265L755 470z" fill="url(#beamGold)" opacity="0.6"/>
  <path d="M800 455L210 0h120l520 455z" fill="#e848a5" opacity="0.08"/>
  <path d="M800 455L1390 0h-120L750 455z" fill="#44d9ff" opacity="0.09"/>

  <ellipse cx="800" cy="780" rx="620" ry="110" fill="#040813" opacity="0.8"/>
  <ellipse cx="800" cy="760" rx="470" ry="82" fill="#182a52" opacity="0.48"/>
  <path d="M310 704h980l112 148H198z" fill="#12072b" opacity="0.92"/>
  <path d="M350 710h900" stroke="#ffcf4a" stroke-width="5" opacity="0.72"/>
  <path d="M456 854l86-144M1144 854l-86-144" stroke="#44d9ff" stroke-width="5" opacity="0.42"/>

  <g opacity="0.18" fill="none" stroke="#ffffff" stroke-width="5" stroke-linecap="round" stroke-linejoin="round">
    <path d="M118 642h120l34 56H84z"/>
    <path d="M132 642v-58h84v58"/>
    <path d="M140 598h68"/>
    <path d="M1360 628h120l34 56h-188z"/>
    <path d="M1374 628v-58h84v58"/>
    <path d="M1382 584h68"/>
  </g>

  <g opacity="0.22" fill="#ffcf4a" font-family="Trebuchet MS, Arial, sans-serif" font-weight="900">
    <text x="225" y="168" font-size="64" transform="rotate(-12 225 168)">A</text>
    <text x="1308" y="190" font-size="56" transform="rotate(14 1308 190)">B</text>
    <text x="188" y="354" font-size="42" transform="rotate(12 188 354)">?</text>
    <text x="1392" y="388" font-size="50" transform="rotate(-15 1392 388)">-s</text>
    <text x="744" y="142" font-size="52">ABC</text>
  </g>

  <g opacity="0.7">
    <circle cx="800" cy="456" r="4" fill="#ffffff"/>
    <circle cx="800" cy="456" r="16" fill="none" stroke="#ffcf4a" stroke-width="2" opacity="0.42"/>
    <circle cx="800" cy="456" r="30" fill="none" stroke="#44d9ff" stroke-width="2" opacity="0.28"/>
  </g>
</svg>
