<svg xmlns="http://www.w3.org/2000/svg" viewBox="0 0 520 520" role="img" aria-labelledby="title desc">
  <title id="title">Grammar Millionaire Junior emblem</title>
  <desc id="desc">A round quiz-show style emblem with a book, stars, and grammar letters.</desc>
  <defs>
    <radialGradient id="core" cx="50%" cy="45%" r="58%">
      <stop offset="0" stop-color="#eafaff"/>
      <stop offset="0.33" stop-color="#4fdfff"/>
      <stop offset="0.72" stop-color="#22256d"/>
      <stop offset="1" stop-color="#08091e"/>
    </radialGradient>
    <linearGradient id="gold" x1="0" x2="1" y1="0" y2="1">
      <stop offset="0" stop-color="#fff58a"/>
      <stop offset="0.5" stop-color="#ffca3a"/>
      <stop offset="1" stop-color="#b77718"/>
    </linearGradient>
    <filter id="glow" x="-25%" y="-25%" width="150%" height="150%">
      <feGaussianBlur stdDeviation="5" result="blur"/>
      <feMerge>
        <feMergeNode in="blur"/>
        <feMergeNode in="SourceGraphic"/>
      </feMerge>
    </filter>
  </defs>

  <circle cx="260" cy="260" r="244" fill="#1f1258"/>
  <circle cx="260" cy="260" r="228" fill="url(#core)" stroke="#f6f1d0" stroke-width="10"/>
  <circle cx="260" cy="260" r="191" fill="none" stroke="url(#gold)" stroke-width="7"/>
  <circle cx="260" cy="260" r="150" fill="none" stroke="#eb4ba6" stroke-width="9"/>

  <g opacity="0.72" stroke="url(#gold)" stroke-width="4">
    <path d="M260 73v374"/>
    <path d="M73 260h374"/>
    <path d="M128 128l264 264"/>
    <path d="M392 128L128 392"/>
    <path d="M260 73c55 54 81 117 81 187s-26 133-81 187c-55-54-81-117-81-187s26-133 81-187z" fill="none"/>
    <path d="M73 260c54-55 117-81 187-81s133 26 187 81c-54 55-117 81-187 81S127 315 73 260z" fill="none"/>
  </g>

  <g filter="url(#glow)">
    <path d="M156 227c44-37 79-37 104 0 25-37 60-37 104 0v118c-47-28-82-28-104 0-22-28-57-28-104 0z" fill="#f7fbff" stroke="#0b1d3f" stroke-width="8" stroke-linejoin="round"/>
    <path d="M260 229v112" stroke="#0b1d3f" stroke-width="7" stroke-linecap="round"/>
    <path d="M178 254c27-10 50-8 68 6M342 254c-27-10-50-8-68 6M178 286c27-10 50-8 68 6M342 286c-27-10-50-8-68 6" stroke="#44a9db" stroke-width="5" stroke-linecap="round"/>
  </g>

  <g fill="url(#gold)" stroke="#4b248f" stroke-width="5">
    <path d="M260 111l13 34 36 2-28 23 10 35-31-19-31 19 10-35-28-23 36-2z"/>
    <path d="M109 260l17 10 17-10-5 19 14 14-20 1-9 18-8-18-20-1 14-14z"/>
    <path d="M411 260l-17 10-17-10 5 19-14 14 20 1 9 18 8-18 20-1-14-14z"/>
  </g>

  <text x="260" y="88" text-anchor="middle" fill="#ffffff" font-family="Trebuchet MS, Arial, sans-serif" font-size="34" font-weight="900">GRAMMAR</text>
  <text x="260" y="464" text-anchor="middle" fill="#ffffff" font-family="Trebuchet MS, Arial, sans-serif" font-size="34" font-weight="900">JUNIOR</text>
  <text x="260" y="210" text-anchor="middle" fill="#ffffff" stroke="#0a0a16" stroke-width="5" paint-order="stroke" font-family="Trebuchet MS, Arial, sans-serif" font-size="48" font-weight="900">MILLIONAIRE</text>
  <text x="260" y="402" text-anchor="middle" fill="#ffcf4a" stroke="#0a0a16" stroke-width="4" paint-order="stroke" font-family="Trebuchet MS, Arial, sans-serif" font-size="42" font-weight="900">QUEST</text>
</svg>
